<svg width="19.000000" height="19.000000" viewBox="0 0 19 19" fill="none" xmlns="http://www.w3.org/2000/svg" xmlns:xlink="http://www.w3.org/1999/xlink">
	<desc>
			Created with Pixso.
	</desc>
	<defs>
		<clipPath id="clip310_614">
			<rect id="gg:search" width="19.000000" height="19.000000" fill="white" fill-opacity="0"/>
		</clipPath>
	</defs>
	<rect id="gg:search" width="19.000000" height="19.000000" fill="#FFFFFF" fill-opacity="0"/>
	<g clip-path="url(#clip310_614)">
		<path id="Vector" d="M14.5 11.42C15.48 10.15 15.95 8.55 15.8 6.94C15.65 5.34 14.89 3.85 13.68 2.79C12.48 1.72 10.91 1.16 9.3 1.21C7.69 1.26 6.16 1.92 5.02 3.06C3.88 4.2 3.21 5.73 3.16 7.34C3.11 8.95 3.68 10.52 4.74 11.73C5.81 12.94 7.3 13.69 8.9 13.84C10.51 14 12.11 13.53 13.38 12.54L13.41 12.57L16.77 15.93C16.85 16.01 16.93 16.06 17.03 16.1C17.13 16.14 17.23 16.16 17.33 16.16C17.44 16.16 17.54 16.14 17.64 16.1C17.73 16.06 17.82 16.01 17.89 15.93C17.97 15.86 18.02 15.77 18.06 15.68C18.1 15.58 18.12 15.48 18.12 15.37C18.12 15.27 18.1 15.17 18.06 15.07C18.02 14.97 17.97 14.89 17.89 14.81L14.53 11.45C14.52 11.44 14.51 11.43 14.5 11.42ZM12.85 4.18C13.3 4.62 13.66 5.14 13.9 5.72C14.14 6.3 14.27 6.92 14.27 7.54C14.28 8.17 14.15 8.79 13.91 9.37C13.68 9.95 13.33 10.48 12.88 10.92C12.44 11.37 11.91 11.72 11.33 11.96C10.75 12.19 10.13 12.32 9.5 12.31C8.88 12.31 8.26 12.18 7.68 11.94C7.1 11.7 6.58 11.34 6.14 10.89C5.26 10 4.77 8.8 4.77 7.54C4.78 6.29 5.28 5.09 6.16 4.2C7.05 3.32 8.25 2.82 9.5 2.81C10.76 2.81 11.96 3.3 12.85 4.18Z" fill="#FFFFFF" fill-opacity="1.000000" fill-rule="evenodd"/>
		<path id="Vector" d="M16 8.15C16.04 7.75 16.04 7.34 16 6.93C15.96 6.51 15.88 6.11 15.77 5.72C15.65 5.33 15.5 4.94 15.32 4.57C15.13 4.2 14.91 3.86 14.66 3.53C14.41 3.21 14.13 2.91 13.82 2.64C13.5 2.36 13.17 2.12 12.82 1.92C12.47 1.71 12.1 1.53 11.71 1.39C11.32 1.25 10.92 1.15 10.52 1.08C10.11 1.02 9.71 1 9.29 1.01C8.88 1.02 8.47 1.07 8.07 1.16C7.67 1.25 7.28 1.38 6.9 1.54C6.52 1.71 6.16 1.9 5.82 2.13C5.48 2.36 5.17 2.62 4.88 2.92C4.58 3.21 4.32 3.52 4.09 3.86C3.86 4.2 3.66 4.56 3.5 4.94C3.33 5.32 3.2 5.71 3.12 6.11C3.03 6.51 2.97 6.92 2.96 7.33C2.95 7.75 2.97 8.16 3.04 8.56C3.1 8.96 3.2 9.36 3.34 9.75C3.49 10.14 3.66 10.51 3.87 10.87C4.08 11.22 4.32 11.55 4.59 11.86C4.87 12.17 5.17 12.45 5.49 12.7C5.81 12.95 6.16 13.17 6.53 13.36C6.9 13.55 7.28 13.7 7.67 13.81C8.07 13.93 8.47 14 8.88 14.04C9.3 14.08 9.71 14.08 10.11 14.04C10.52 14 10.92 13.93 11.32 13.81C11.72 13.69 12.1 13.54 12.47 13.36C12.78 13.2 13.08 13.01 13.36 12.8L16.63 16.07C16.68 16.12 16.73 16.16 16.78 16.2C16.83 16.23 16.89 16.26 16.95 16.29C17.01 16.31 17.08 16.33 17.14 16.35C17.2 16.36 17.27 16.36 17.33 16.36C17.4 16.36 17.46 16.36 17.53 16.35C17.59 16.33 17.65 16.31 17.71 16.29C17.77 16.26 17.83 16.23 17.88 16.2C17.94 16.16 17.99 16.12 18.03 16.07C18.08 16.03 18.12 15.98 18.16 15.92C18.19 15.87 18.22 15.81 18.25 15.75C18.27 15.69 18.29 15.63 18.31 15.57C18.32 15.5 18.32 15.44 18.32 15.37C18.32 15.31 18.32 15.24 18.31 15.18C18.29 15.12 18.27 15.05 18.25 14.99C18.22 14.93 18.19 14.88 18.16 14.82C18.12 14.77 18.08 14.72 18.03 14.67L14.76 11.4C14.97 11.12 15.16 10.82 15.32 10.51C15.5 10.14 15.65 9.76 15.77 9.36C15.88 8.96 15.96 8.56 16 8.15ZM14.5 11.42C15.48 10.15 15.95 8.55 15.8 6.94C15.65 5.34 14.89 3.85 13.68 2.79C12.48 1.72 10.91 1.16 9.3 1.21C7.69 1.26 6.16 1.92 5.02 3.06C3.88 4.2 3.21 5.73 3.16 7.34C3.11 8.95 3.68 10.52 4.74 11.73C5.81 12.94 7.3 13.69 8.9 13.84C10.51 14 12.11 13.53 13.38 12.54L13.41 12.57L16.77 15.93C16.85 16.01 16.93 16.06 17.03 16.1C17.13 16.14 17.23 16.16 17.33 16.16C17.44 16.16 17.54 16.14 17.64 16.1C17.73 16.06 17.82 16.01 17.89 15.93C17.97 15.86 18.02 15.77 18.06 15.68C18.1 15.58 18.12 15.48 18.12 15.37C18.12 15.27 18.1 15.17 18.06 15.07C18.02 14.97 17.97 14.89 17.89 14.81L14.53 11.45C14.52 11.44 14.51 11.43 14.5 11.42ZM12.85 4.18C13.3 4.62 13.66 5.14 13.9 5.72C14.14 6.3 14.27 6.92 14.27 7.54C14.28 8.17 14.15 8.79 13.91 9.37C13.68 9.95 13.33 10.48 12.88 10.92C12.44 11.37 11.91 11.72 11.33 11.96C10.75 12.19 10.13 12.32 9.5 12.31C8.88 12.31 8.26 12.18 7.68 11.94C7.1 11.7 6.58 11.34 6.14 10.89C5.26 10 4.77 8.8 4.77 7.54C4.78 6.29 5.28 5.09 6.16 4.2C7.05 3.32 8.25 2.82 9.5 2.81C10.76 2.81 11.96 3.3 12.85 4.18ZM13.29 5.01C13.46 5.25 13.6 5.52 13.72 5.8C13.83 6.08 13.92 6.36 13.98 6.65C14.04 6.94 14.07 7.24 14.07 7.54C14.07 7.85 14.05 8.15 13.99 8.44C13.93 8.73 13.85 9.02 13.73 9.3C13.61 9.58 13.47 9.84 13.31 10.09C13.14 10.34 12.95 10.57 12.74 10.78C12.53 11 12.29 11.18 12.05 11.35C11.8 11.51 11.54 11.66 11.26 11.77C10.98 11.89 10.69 11.97 10.4 12.03C10.1 12.09 9.81 12.11 9.5 12.11C9.2 12.11 8.9 12.08 8.61 12.02C8.32 11.96 8.04 11.87 7.76 11.76C7.48 11.64 7.21 11.5 6.97 11.33C6.72 11.16 6.49 10.97 6.28 10.75C6.07 10.54 5.88 10.31 5.72 10.06C5.56 9.82 5.42 9.56 5.31 9.28C5.2 9 5.11 8.72 5.06 8.43C5 8.14 4.97 7.84 4.97 7.54C4.97 7.24 5 6.95 5.06 6.66C5.12 6.37 5.21 6.09 5.32 5.81C5.44 5.54 5.58 5.28 5.74 5.03C5.91 4.79 6.09 4.56 6.31 4.35C6.52 4.13 6.75 3.95 6.99 3.78C7.24 3.62 7.5 3.48 7.77 3.36C8.05 3.25 8.33 3.16 8.62 3.1C8.91 3.04 9.2 3.01 9.5 3.01C9.8 3.01 10.1 3.04 10.39 3.1C10.68 3.15 10.96 3.24 11.24 3.35C11.52 3.46 11.78 3.6 12.02 3.76C12.27 3.92 12.5 4.11 12.71 4.32C12.93 4.53 13.12 4.76 13.29 5.01Z" fill="#FFFFFF" fill-opacity="1.000000" fill-rule="evenodd"/>
	</g>
</svg>
